<svg width="387" height="522" viewBox="0 0 387 522" fill="none" xmlns="http://www.w3.org/2000/svg" xmlns:xlink="http://www.w3.org/1999/xlink">
<rect width="387" height="522" rx="40" fill="#9B4BDC"/>
<rect width="387" height="522" rx="40" fill="url(#pattern0_64_92)" fill-opacity="0.25"/>
<path d="M172.432 213.399C172.874 217.49 172.57 221.498 171.52 225.423C170.47 229.348 168.785 232.969 166.464 236.286C164.806 238.663 162.844 240.764 160.579 242.588C158.368 244.413 155.992 245.961 153.45 247.232C150.908 248.448 148.255 249.333 145.492 249.886C142.784 250.494 140.076 250.715 137.369 250.549C134.606 250.383 131.898 249.803 129.245 248.808C126.648 247.813 124.244 246.348 122.034 244.413C119.823 242.478 117.889 240.045 116.231 237.115C114.573 234.185 113.302 230.702 112.418 226.667C112.086 224.732 111.948 222.935 112.004 221.276C110.954 223.322 109.821 225.533 108.605 227.91C107.445 230.232 106.173 232.582 104.792 234.959C103.41 237.281 101.891 239.548 100.233 241.759C98.575 243.915 96.779 245.822 94.8449 247.481C92.9107 249.139 90.8108 250.439 88.545 251.378C86.2793 252.373 83.7925 252.843 81.0847 252.788C77.9348 252.733 74.8954 251.821 71.9666 250.052C69.093 248.283 66.4957 246.016 64.1747 243.252C61.909 240.488 60.0024 237.392 58.4551 233.964C56.8525 230.536 55.8025 227.109 55.3052 223.681C54.8078 220.254 54.9184 216.992 55.6368 213.896C56.2999 210.8 57.7367 208.202 59.9472 206.101C60.4445 205.659 61.0248 205.493 61.6879 205.604C62.351 205.769 62.8484 206.184 63.18 206.847C65.1141 211.325 67.4904 214.67 70.3087 216.881C73.1271 219.037 76.1941 220.088 79.5098 220.033C83.6544 219.977 87.9924 218.208 92.5239 214.725C97.1106 211.242 101.476 206.129 105.621 199.384C106.837 197.394 108.108 195.183 109.434 192.75C110.815 190.318 112.225 187.775 113.661 185.121C115.098 182.467 116.59 179.786 118.138 177.077C119.685 174.368 121.26 171.77 122.862 169.282C124.465 166.739 126.095 164.39 127.753 162.234C129.411 160.022 131.041 158.143 132.644 156.595C135.02 154.715 137.452 153.775 139.938 153.775C140.878 153.775 141.762 153.886 142.591 154.107C143.42 154.383 143.917 154.909 144.083 155.682C144.193 156.512 143.945 157.175 143.337 157.673C141.734 159 140.215 160.879 138.778 163.312C137.341 165.744 135.987 168.315 134.716 171.024C133.5 173.733 132.367 176.386 131.318 178.985C130.268 181.583 129.356 183.767 128.582 185.536C130.627 184.319 132.589 183.435 134.467 182.882C136.402 182.329 138.391 182.053 140.436 182.053C141.596 182.053 142.784 182.136 144 182.302C145.216 182.468 146.487 182.689 147.813 182.965C151.405 179.206 153.975 175.723 155.522 172.516C157.069 169.31 157.815 166.408 157.76 163.809C157.705 161.156 156.931 158.834 155.439 156.844C153.947 154.853 151.958 153.195 149.471 151.868C146.984 150.541 144.111 149.574 140.85 148.966C137.59 148.357 134.163 148.109 130.571 148.219C126.261 148.33 122.061 149.049 117.972 150.375C113.938 151.647 110.152 153.333 106.616 155.434C103.134 157.479 100.012 159.829 97.2487 162.482C94.4857 165.081 92.2476 167.762 90.5345 170.526C89.1529 172.793 88.1582 175.059 87.5503 177.326C86.9425 179.537 86.8319 181.638 87.2188 183.628C87.6056 185.563 88.5174 187.332 89.9542 188.936C91.4463 190.484 93.5462 191.727 96.254 192.667C96.7514 192.833 97.1382 193.193 97.4145 193.745C97.6356 194.298 97.6356 194.851 97.4145 195.404C96.7514 196.952 95.8672 198.279 94.762 199.384C93.6567 200.49 92.3857 201.374 90.9489 202.038C89.5674 202.646 88.0477 203.061 86.3898 203.282C84.7872 203.448 83.157 203.392 81.4992 203.116C79.0124 202.729 76.5809 201.844 74.2047 200.462C71.8284 199.025 69.8114 197.118 68.1535 194.741C66.4957 192.363 65.3075 189.489 64.5891 186.116C63.926 182.744 64.0089 178.874 64.8378 174.507C65.501 171.024 66.9378 167.817 69.1482 164.887C71.4139 161.957 74.2323 159.304 77.6032 156.927C81.0295 154.494 84.8978 152.366 89.2082 150.541C93.5186 148.662 98.05 147.086 102.803 145.815C107.555 144.543 112.418 143.603 117.392 142.995C122.42 142.332 127.339 142 132.146 142C137.562 142 142.674 142.415 147.482 143.244C152.289 144.073 156.489 145.345 160.081 147.058C163.728 148.772 166.602 150.928 168.702 153.527C170.857 156.125 171.935 159.221 171.935 162.814C171.935 166.131 171.382 169.089 170.277 171.687C169.227 174.286 167.845 176.69 166.132 178.902C164.474 181.058 162.596 183.103 160.496 185.038C158.396 186.918 156.296 188.825 154.196 190.76L158.258 189.433C162.734 192.806 166.105 196.565 168.37 200.711C170.636 204.857 171.99 209.086 172.432 213.399ZM137.203 191.589C136.706 191.423 136.181 191.34 135.628 191.34C134.467 191.34 133.445 191.755 132.561 192.584C131.677 193.358 131.096 194.326 130.82 195.487C131.262 195.708 131.815 195.68 132.478 195.404C133.141 195.127 133.832 194.768 134.55 194.326C135.269 193.883 135.932 193.414 136.54 192.916C137.203 192.418 137.7 192.059 138.032 191.838C137.921 191.783 137.783 191.727 137.617 191.672C137.507 191.617 137.369 191.589 137.203 191.589ZM153.947 214.145C154.223 211.049 153.588 207.843 152.041 204.526C150.549 201.208 148.255 198.334 145.161 195.901C144 196.62 142.784 197.422 141.513 198.306C140.298 199.191 139.027 200.048 137.7 200.877C136.429 201.651 135.103 202.314 133.721 202.867C132.395 203.42 131.041 203.696 129.66 203.696C128.444 203.696 127.228 203.447 126.012 202.95C124.852 202.397 123.691 201.485 122.531 200.213L117.557 210.247C117.999 209.916 118.442 209.612 118.884 209.335C119.381 209.059 119.851 208.838 120.293 208.672C120.901 208.506 121.453 208.589 121.951 208.921C122.448 209.252 122.697 209.722 122.697 210.33C122.862 212.708 123.498 214.836 124.603 216.716C125.708 218.54 127.118 220.116 128.831 221.442C130.544 222.714 132.45 223.681 134.55 224.345C136.65 225.008 138.723 225.34 140.767 225.34C142.425 225.34 144 225.119 145.492 224.676C147.039 224.234 148.393 223.571 149.554 222.686C150.77 221.746 151.764 220.585 152.538 219.203C153.312 217.766 153.781 216.08 153.947 214.145ZM228.55 217.545C228.219 218.485 227.859 219.424 227.473 220.364C227.141 221.304 226.782 222.244 226.395 223.184C225.124 226.224 223.715 229.237 222.168 232.223C220.62 235.153 218.935 237.862 217.111 240.349C214.569 243.832 212.055 246.265 209.568 247.647C207.136 249.029 204.954 249.526 203.019 249.139C201.693 248.918 200.533 248.338 199.538 247.398C198.598 246.458 197.852 245.242 197.3 243.749C196.747 242.257 196.471 240.488 196.471 238.442C196.471 236.397 196.802 234.13 197.466 231.642C196.581 233.19 195.559 234.987 194.399 237.032C193.293 239.078 191.995 241.013 190.503 242.837C189.011 244.661 187.325 246.182 185.446 247.398C183.623 248.614 181.495 249.222 179.064 249.222C176.245 249.222 174.09 248.669 172.598 247.564C171.051 246.458 170.001 244.965 169.448 243.086C168.895 241.206 168.785 239.022 169.116 236.535C169.393 233.992 169.945 231.31 170.774 228.491C171.769 224.898 173.012 221.221 174.504 217.462C175.997 213.703 177.406 210.109 178.732 206.682C179.395 204.968 180.058 203.365 180.721 201.872C181.44 200.324 182.048 198.914 182.545 197.643C183.042 196.316 183.374 195.127 183.54 194.077C183.705 193.027 183.567 192.142 183.125 191.423C184.175 190.483 185.225 189.82 186.275 189.433C187.325 189.046 188.292 188.908 189.176 189.018C190.613 189.24 191.663 190.069 192.326 191.506C193.045 192.888 193.017 194.823 192.243 197.311C191.801 198.748 191.276 200.296 190.668 201.955C190.116 203.613 189.536 205.327 188.928 207.096C187.988 210.082 187.159 213.012 186.441 215.886C185.723 218.761 185.363 221.249 185.363 223.35C185.363 225.285 185.723 226.694 186.441 227.579C187.215 228.408 188.126 228.85 189.176 228.906C190.226 228.961 191.332 228.657 192.492 227.993C193.708 227.275 194.758 226.307 195.642 225.091C196.305 224.206 196.968 223.184 197.631 222.023C198.295 220.807 198.93 219.369 199.538 217.711C200.533 215.223 201.389 212.79 202.108 210.413C202.826 207.981 203.517 205.714 204.18 203.613C204.898 201.457 205.672 199.55 206.501 197.892C207.33 196.178 208.325 194.823 209.485 193.828C211.751 191.893 213.63 191.064 215.122 191.34C216.614 191.562 217.526 192.722 217.857 194.823C218.189 196.924 217.774 199.605 216.614 202.867C216.006 204.47 215.315 206.101 214.541 207.76C213.823 209.363 213.077 210.883 212.303 212.321C211.585 213.703 210.894 214.946 210.231 216.052C209.568 217.158 208.988 218.015 208.49 218.623C208.104 221.995 208.297 224.511 209.071 226.169C209.844 227.772 210.922 228.519 212.303 228.408C213.685 228.297 215.205 227.33 216.862 225.506C218.52 223.681 220.04 221.028 221.422 217.545H228.55ZM210.811 201.706L211.723 200.545C212.22 199.992 212.469 199.605 212.469 199.384C212.524 199.108 212.469 198.942 212.303 198.887C212.138 198.887 211.917 198.997 211.64 199.218C211.419 199.439 211.253 199.771 211.143 200.213L210.811 201.706ZM261.376 190.926C263.255 190.871 264.774 191.257 265.935 192.087C267.151 192.916 268.062 194.049 268.67 195.487C269.333 196.924 269.748 198.638 269.914 200.628C270.079 202.563 270.052 204.636 269.831 206.847C269.665 209.059 269.333 211.325 268.836 213.647C268.339 215.969 267.786 218.236 267.178 220.447C267.123 220.889 266.985 221.359 266.764 221.857C268.145 220.53 269.416 218.955 270.577 217.13C271.793 215.251 272.787 213.371 273.561 211.491H280.773C279.944 213.758 279.087 216.052 278.203 218.374C277.374 220.696 276.462 222.963 275.467 225.174C274.473 227.33 273.368 229.376 272.152 231.31C270.936 233.245 269.582 234.959 268.09 236.452C267.537 236.949 266.902 237.502 266.184 238.11C265.52 238.718 264.802 239.299 264.028 239.852C263.255 240.349 262.426 240.792 261.542 241.179C260.713 241.51 259.884 241.676 259.055 241.676C258.502 241.676 258.005 241.621 257.563 241.51C257.121 241.4 256.679 241.261 256.236 241.095C253.75 243.86 251.208 245.988 248.61 247.481C246.013 248.973 243.526 249.637 241.15 249.471C238.774 249.305 236.84 248.559 235.348 247.232C233.911 245.905 232.861 244.164 232.198 242.008C231.535 239.852 231.231 237.391 231.286 234.627C231.396 231.808 231.811 228.878 232.529 225.837C231.479 228.823 230.402 232.084 229.296 235.622C228.191 239.105 227.224 242.699 226.395 246.403C225.622 250.051 225.041 253.7 224.654 257.349C224.268 260.998 224.212 264.425 224.489 267.632C224.82 270.893 225.594 273.851 226.81 276.505C228.025 279.214 229.821 281.425 232.198 283.139C232.861 283.581 233.248 284.272 233.358 285.212C233.413 285.986 233.137 286.732 232.529 287.451C230.319 289.607 228.302 291.459 226.478 293.007C224.654 294.555 222.941 295.799 221.339 296.738C219.736 297.734 218.161 298.397 216.614 298.729C215.122 299.06 213.574 299.088 211.972 298.811C209.817 298.48 208.048 297.678 206.667 296.407C205.285 295.135 204.208 293.56 203.434 291.68C202.66 289.8 202.163 287.644 201.942 285.212C201.721 282.835 201.693 280.347 201.859 277.748C202.135 273.27 202.743 268.958 203.683 264.812C204.622 260.721 205.755 256.713 207.081 252.788C208.408 248.863 209.844 244.993 211.392 241.178C212.939 237.364 214.459 233.549 215.951 229.735C217.167 226.639 218.41 223.488 219.681 220.281C220.952 217.019 222.085 213.813 223.079 210.662C224.129 207.455 224.958 204.359 225.566 201.374C226.174 198.389 226.395 195.597 226.229 192.999C226.174 192.335 226.34 191.755 226.727 191.257C227.114 190.704 227.611 190.317 228.219 190.096C229.711 189.654 231.148 189.295 232.529 189.018C233.911 188.687 235.154 188.687 236.259 189.018C238.138 189.516 239.52 190.4 240.404 191.672C241.288 192.943 241.786 194.436 241.896 196.15C242.062 197.864 241.924 199.716 241.482 201.706C241.095 203.696 240.57 205.686 239.907 207.676C241.343 205.355 242.863 203.199 244.466 201.208C246.124 199.163 247.864 197.394 249.688 195.901C251.512 194.408 253.391 193.22 255.325 192.335C257.314 191.451 259.331 190.981 261.376 190.926ZM252.755 202.535C251.373 203.143 250.213 204.166 249.273 205.604C248.334 206.986 247.698 208.451 247.367 209.999C247.091 211.27 247.035 212.459 247.201 213.564C247.367 214.615 247.837 215.389 248.61 215.886C249.218 216.329 249.605 216.909 249.771 217.628C249.937 218.291 249.854 218.927 249.522 219.535C249.025 220.53 248.472 221.47 247.864 222.354C247.256 223.184 246.621 223.902 245.958 224.511C245.35 225.119 244.742 225.561 244.134 225.837C243.526 226.114 242.946 226.169 242.393 226.003C241.62 225.727 240.984 224.925 240.487 223.598C240.045 222.216 239.768 220.06 239.658 217.13C239.271 218.954 238.995 220.723 238.829 222.437C238.718 224.151 238.718 225.699 238.829 227.081C238.94 228.408 239.161 229.514 239.492 230.398C239.879 231.283 240.404 231.808 241.067 231.974C242.449 232.305 243.885 231.835 245.378 230.564C246.925 229.237 248.362 227.523 249.688 225.423C251.069 223.267 252.285 220.889 253.335 218.291C254.44 215.693 255.242 213.233 255.739 210.911C256.292 208.589 256.485 206.626 256.319 205.023C256.153 203.42 255.518 202.535 254.413 202.369C254.026 202.314 253.473 202.37 252.755 202.535ZM332 217.877C330.784 220.641 329.292 223.737 327.524 227.164C325.755 230.592 323.738 233.881 321.473 237.032C319.207 240.128 316.693 242.809 313.929 245.076C311.166 247.287 308.182 248.587 304.977 248.974C303.209 249.195 301.772 249.029 300.667 248.476C299.617 247.868 298.788 247.039 298.18 245.988C297.627 244.883 297.268 243.583 297.102 242.091C296.992 240.598 297.02 239.023 297.185 237.364C296.411 238.912 295.527 240.432 294.533 241.925C293.593 243.362 292.488 244.634 291.217 245.739C289.946 246.845 288.481 247.73 286.824 248.393C285.221 249.001 283.37 249.278 281.27 249.222C279.059 249.112 277.125 248.338 275.467 246.9C273.809 245.463 272.511 243.556 271.571 241.179C270.632 238.801 270.079 236.065 269.914 232.969C269.693 229.873 269.886 226.667 270.494 223.35C271.157 219.535 272.373 215.748 274.141 211.989C275.965 208.23 278.23 204.857 280.938 201.872C283.646 198.887 286.768 196.482 290.305 194.657C293.842 192.778 297.71 191.838 301.91 191.838C303.236 191.838 304.535 191.949 305.806 192.17C307.132 192.336 308.376 192.667 309.536 193.165C310.697 193.662 311.747 194.326 312.686 195.155C313.681 195.984 314.51 197.035 315.173 198.306C315.946 199.743 316.389 201.291 316.499 202.95C316.665 204.608 316.554 206.267 316.168 207.925C315.836 209.529 315.2 211.077 314.261 212.569C313.377 214.007 312.216 215.223 310.779 216.218H312.852C313.294 216.218 313.598 216.356 313.764 216.633C313.985 216.854 314.04 217.185 313.929 217.628C313.487 219.176 313.128 220.668 312.852 222.106C312.631 223.488 312.548 224.732 312.603 225.837C312.713 226.888 312.99 227.745 313.432 228.408C313.929 229.016 314.648 229.32 315.587 229.32C316.361 229.32 317.134 229.016 317.908 228.408C318.682 227.8 319.455 226.971 320.229 225.92C321.058 224.87 321.859 223.654 322.633 222.272C323.407 220.889 324.153 219.424 324.871 217.877H332ZM309.122 206.765C309.785 205.327 309.978 204.166 309.702 203.282C309.426 202.397 308.901 201.706 308.127 201.209C307.574 200.877 306.939 200.628 306.221 200.462C305.557 200.296 304.839 200.213 304.065 200.213C301.689 200.213 299.451 200.96 297.351 202.452C295.251 203.945 293.372 205.797 291.714 208.008C290.112 210.22 288.785 212.597 287.736 215.14C286.741 217.683 286.078 219.977 285.746 222.023C285.359 224.51 285.414 226.473 285.912 227.91C286.464 229.292 287.238 230.122 288.233 230.398C289.283 230.73 290.471 230.453 291.797 229.569C293.179 228.684 294.477 227.164 295.693 225.008C295.914 224.621 296.218 224.068 296.605 223.35C296.992 222.631 297.351 221.912 297.682 221.193C298.069 220.419 298.401 219.756 298.677 219.203C299.009 218.595 299.175 218.291 299.175 218.291L299.009 218.208C297.903 217.932 296.881 217.462 295.942 216.798C295.057 216.08 294.311 215.057 293.703 213.73C293.538 213.177 293.648 212.735 294.035 212.403C294.422 212.016 294.892 211.933 295.444 212.155C296.605 212.818 297.765 213.15 298.926 213.15C299.92 213.15 300.887 212.956 301.827 212.569C302.38 211.574 302.905 210.634 303.402 209.75C303.954 208.81 304.507 208.036 305.06 207.428C305.778 206.709 306.386 206.35 306.883 206.35C307.104 206.46 307.215 206.516 307.215 206.516C307.215 206.516 307.243 206.626 307.298 206.847L307.381 207.925V208.174L307.298 209.584L307.215 209.667H307.298V209.584C307.574 209.307 307.878 208.92 308.21 208.423C308.541 207.925 308.845 207.373 309.122 206.765Z" fill="#310B4F"/>
<path d="M239.857 276.707C238.506 276.707 237.29 276.476 236.21 276.012C235.129 275.53 234.28 274.854 233.662 273.985C233.045 273.117 232.736 272.103 232.736 270.945H236.267C236.345 271.814 236.682 272.528 237.281 273.088C237.898 273.648 238.757 273.927 239.857 273.927C240.995 273.927 241.883 273.657 242.52 273.117C243.157 272.557 243.475 271.842 243.475 270.974C243.475 270.298 243.272 269.748 242.867 269.323C242.481 268.898 241.989 268.57 241.391 268.339C240.812 268.107 240.002 267.856 238.959 267.586C237.647 267.238 236.576 266.891 235.746 266.543C234.936 266.176 234.241 265.617 233.662 264.864C233.083 264.111 232.794 263.107 232.794 261.852C232.794 260.694 233.083 259.68 233.662 258.812C234.241 257.943 235.052 257.277 236.094 256.814C237.136 256.35 238.342 256.119 239.712 256.119C241.661 256.119 243.253 256.611 244.488 257.595C245.742 258.561 246.437 259.893 246.572 261.592H242.925C242.867 260.858 242.52 260.231 241.883 259.709C241.246 259.188 240.407 258.927 239.365 258.927C238.419 258.927 237.647 259.169 237.049 259.651C236.451 260.134 236.152 260.829 236.152 261.736C236.152 262.354 236.335 262.866 236.702 263.271C237.088 263.657 237.57 263.966 238.149 264.198C238.728 264.429 239.519 264.68 240.523 264.951C241.854 265.317 242.935 265.684 243.764 266.051C244.614 266.418 245.328 266.987 245.907 267.76C246.505 268.512 246.804 269.526 246.804 270.8C246.804 271.823 246.524 272.788 245.964 273.696C245.424 274.603 244.623 275.337 243.562 275.897C242.52 276.437 241.285 276.707 239.857 276.707ZM266.777 256.379V276.505H263.477V267.702H254.011V276.505H250.712V256.379H254.011V265.009H263.477V256.379H266.777ZM283.247 272.393H274.824L273.376 276.505H269.932L277.139 256.35H280.96L288.168 276.505H284.694L283.247 272.393ZM282.321 269.7L279.05 260.346L275.75 269.7H282.321ZM290.194 266.398C290.194 264.429 290.647 262.663 291.554 261.099C292.481 259.536 293.725 258.319 295.288 257.451C296.871 256.563 298.598 256.119 300.47 256.119C302.612 256.119 304.512 256.649 306.172 257.711C307.851 258.754 309.067 260.24 309.819 262.171H305.854C305.333 261.109 304.609 260.317 303.683 259.796C302.756 259.275 301.685 259.014 300.47 259.014C299.138 259.014 297.951 259.314 296.909 259.912C295.867 260.51 295.047 261.37 294.449 262.489C293.87 263.609 293.581 264.912 293.581 266.398C293.581 267.885 293.87 269.188 294.449 270.308C295.047 271.427 295.867 272.296 296.909 272.914C297.951 273.512 299.138 273.812 300.47 273.812C301.685 273.812 302.756 273.551 303.683 273.03C304.609 272.509 305.333 271.717 305.854 270.655H309.819C309.067 272.586 307.851 274.072 306.172 275.115C304.512 276.157 302.612 276.678 300.47 276.678C298.579 276.678 296.851 276.244 295.288 275.375C293.725 274.487 292.481 273.261 291.554 271.698C290.647 270.134 290.194 268.368 290.194 266.398ZM324.755 276.505L316.969 267.499V276.505H313.669V256.379H316.969V265.559L324.784 256.379H328.924L320.182 266.456L329.068 276.505H324.755Z" fill="#310B4F"/>
<defs>
<pattern id="pattern0_64_92" patternUnits="userSpaceOnUse" patternTransform="matrix(107.5 0 0 92.4998 150.5 485)" preserveAspectRatio="none" viewBox="0 0 107.5 92.4998" width="1" height="1">
<use xlink:href="#pattern0_64_92_inner" transform="translate(-107.5 0)"/>
<g id="pattern0_64_92_inner">
<path d="M67.5006 23.0872C70.034 23.0872 72.0878 21.0334 72.0878 18.5C72.0878 15.9665 70.034 13.9127 67.5006 13.9127C64.9671 13.9127 62.9133 15.9665 62.9133 18.5C62.9133 21.0334 64.9671 23.0872 67.5006 23.0872Z" fill="#E0C6AA"/>
<path d="M67.4571 0C66.0067 1.66899 65.2078 3.80568 65.2075 6.01687C65.2092 8.24888 66.0245 10.4037 67.5008 12.0778C68.9503 10.4091 69.7486 8.27321 69.749 6.06286C69.7481 3.83038 68.9333 1.6748 67.4571 0Z" fill="#E0C6AA"/>
<path d="M67.5006 24.9221C66.0502 26.5911 65.2513 28.7278 65.251 30.939C65.2527 33.171 66.068 35.3258 67.5442 36.9999C68.9937 35.3312 69.7921 33.1953 69.7924 30.985C69.7916 28.7525 68.9768 26.5969 67.5006 24.9221Z" fill="#E0C6AA"/>
<path d="M49 18.4571C50.669 17.0066 52.8057 16.2078 55.0169 16.2075C57.2489 16.2092 59.4037 17.0245 61.0778 18.5007C59.4091 19.9502 57.2732 20.7485 55.0629 20.7489C52.8304 20.7481 50.6748 19.9332 49 18.4571Z" fill="#E0C6AA"/>
<path d="M73.9221 18.5007C75.5911 17.0502 77.7278 16.2513 79.939 16.251C82.171 16.2527 84.3258 17.068 85.9999 18.5443C84.3312 19.9938 82.1953 20.7921 79.985 20.7925C77.7525 20.7917 75.5969 19.9768 73.9221 18.5007Z" fill="#E0C6AA"/>
<path d="M54.3882 31.5511C54.5427 29.3453 55.4887 27.2696 57.052 25.7058C58.6315 24.1287 60.7317 23.1815 62.9593 23.0416C62.8043 25.2465 61.8585 27.3213 60.2958 28.8846C58.7166 30.4626 56.6162 31.4106 54.3882 31.5511Z" fill="#E0C6AA"/>
<path d="M72.0415 13.9593C72.196 11.7535 73.142 9.67776 74.7053 8.11401C76.2848 6.53693 78.385 5.58974 80.6127 5.44983C80.4577 7.65474 79.5118 9.72958 77.9491 11.2928C76.3699 12.8708 74.2696 13.8188 72.0415 13.9593Z" fill="#E0C6AA"/>
<path d="M54.45 5.38818C56.6557 5.54272 58.7315 6.48868 60.2952 8.05201C61.8723 9.63149 62.8195 11.7317 62.9594 13.9593C60.7545 13.8043 58.6797 12.8585 57.1165 11.2958C55.5385 9.71663 54.5904 7.61624 54.45 5.38818Z" fill="#E0C6AA"/>
<path d="M72.0415 23.0416C74.2473 23.1962 76.323 24.1421 77.8868 25.7055C79.4639 27.2849 80.4111 29.3851 80.551 31.6128C78.3461 31.4578 76.2712 30.512 74.708 28.9493C73.13 27.3701 72.182 25.2697 72.0415 23.0416Z" fill="#E0C6AA"/>
<path d="M38.7161 23.5293C38.862 24.8776 38.7618 26.1985 38.4156 27.492C38.0695 28.7856 37.5138 29.9789 36.7486 31.072C36.202 31.8555 35.5553 32.5478 34.8083 33.1491C34.0795 33.7503 33.296 34.2604 32.458 34.6795C31.6199 35.0803 30.7453 35.3718 29.8344 35.554C28.9417 35.7543 28.0489 35.8272 27.1562 35.7728C26.2452 35.7179 25.3524 35.5266 24.4779 35.1989C23.6216 34.871 22.8291 34.3882 22.1004 33.7506C21.3716 33.1129 20.7339 32.3113 20.1873 31.3456C19.6407 30.38 19.2217 29.2322 18.9302 27.9022C18.8208 27.2645 18.7753 26.6724 18.7934 26.1258C18.4472 26.8 18.0737 27.5287 17.673 28.3121C17.2904 29.0773 16.8713 29.8516 16.4159 30.6351C15.9603 31.4003 15.4593 32.1472 14.9127 32.876C14.3661 33.5866 13.774 34.2152 13.1363 34.7617C12.4987 35.3083 11.8063 35.7364 11.0594 36.0461C10.3124 36.3741 9.49257 36.529 8.59982 36.5107C7.56133 36.4956 6.55928 36.195 5.59366 35.6089C4.64626 35.0259 3.78996 34.2789 3.02476 33.368C2.27777 32.457 1.64917 31.4367 1.13903 30.3071C0.610681 29.1775 0.264475 28.0479 0.100494 26.9184C-0.0632857 25.7887 -0.0268757 24.7138 0.209723 23.6936C0.428431 22.6733 0.902159 21.817 1.63085 21.1247C1.79488 20.9788 1.98621 20.9241 2.20479 20.9606C2.4235 21.0156 2.58747 21.1522 2.69673 21.3706C3.33438 22.8464 4.11787 23.9486 5.04705 24.6774C5.97621 25.3879 6.98727 25.7341 8.08043 25.7159C9.44686 25.7007 10.8771 25.1178 12.371 23.9669C13.8832 22.819 15.3225 21.1338 16.689 18.911C17.0898 18.2552 17.5088 17.5264 17.9461 16.7247C18.4016 15.9231 18.8662 15.085 19.3399 14.2104C19.8136 13.3359 20.3055 12.4523 20.8157 11.5595C21.3258 10.6668 21.845 9.81054 22.3734 8.99074C22.9017 8.15264 23.4392 7.37827 23.9858 6.66769C24.5323 5.93897 25.0698 5.31958 25.5981 4.80942C26.3816 4.19 27.1833 3.88028 28.0031 3.88028C28.3128 3.88028 28.6044 3.91669 28.8776 3.98951C29.1509 4.08072 29.3149 4.2538 29.3696 4.50872C29.4061 4.78203 29.3241 5.00062 29.1235 5.16455C28.5952 5.60185 28.0941 6.22131 27.6204 7.02295C27.1467 7.82461 26.7003 8.67184 26.2813 9.56456C25.8805 10.4573 25.507 11.3318 25.1609 12.1881C24.8147 13.0444 24.514 13.764 24.259 14.347C24.9331 13.9462 25.58 13.6547 26.1994 13.4725C26.8371 13.2904 27.4929 13.1993 28.167 13.1993C28.5496 13.1993 28.9413 13.2268 29.3421 13.2817C29.743 13.3366 30.1621 13.4095 30.5993 13.5005C31.7836 12.2616 32.6307 11.1138 33.1408 10.0571C33.6509 9.00045 33.897 8.0439 33.8788 7.18754C33.8611 6.31303 33.606 5.54785 33.1135 4.892C32.6216 4.23608 31.9657 3.68951 31.1458 3.25224C30.326 2.815 29.3786 2.49618 28.3037 2.29577C27.2288 2.09545 26.0991 2.0134 24.9148 2.04969C23.4937 2.08622 22.1091 2.32305 20.7609 2.76019C19.4309 3.17927 18.1829 3.73501 17.0169 4.42735C15.8691 5.10144 14.8397 5.87571 13.9287 6.75022C13.0178 7.60651 12.2799 8.49013 11.7151 9.40112C11.2596 10.1481 10.9317 10.8951 10.7313 11.642C10.531 12.3708 10.4944 13.0632 10.6216 13.7191C10.7494 14.3567 11.05 14.9397 11.5235 15.4681C12.0154 15.9782 12.7077 16.3881 13.6005 16.6979C13.7645 16.7528 13.8921 16.8713 13.9832 17.0532C14.0562 17.2354 14.0562 17.4176 13.9832 17.5998C13.7645 18.1099 13.473 18.5471 13.1087 18.9115C12.7443 19.2759 12.3252 19.5674 11.8514 19.7861C11.396 19.9864 10.895 20.123 10.3484 20.1959C9.82005 20.2508 9.28263 20.2325 8.73604 20.141C7.91621 20.0133 7.11449 19.7218 6.33104 19.2664C5.54762 18.7928 4.88265 18.1642 4.33608 17.3808C3.78951 16.5974 3.39783 15.65 3.16098 14.5386C2.94227 13.4272 2.9696 12.1519 3.24299 10.7126C3.4617 9.5648 3.93542 8.5081 4.66412 7.5425C5.4111 6.57691 6.34023 5.70235 7.45159 4.91888C8.58119 4.11724 9.85661 3.41586 11.2777 2.81469C12.6988 2.1952 14.1927 1.6759 15.7596 1.25682C17.3264 0.837826 18.9297 0.528128 20.5694 0.327687C22.2274 0.10923 23.8488 0 25.4339 0C27.2194 0 28.9047 0.136601 30.4898 0.40981C32.0749 0.683146 33.4594 1.10223 34.6437 1.66704C35.8461 2.23183 36.7935 2.94235 37.4858 3.79862C38.1964 4.65496 38.5517 5.67522 38.5517 6.85945C38.5517 7.95259 38.3695 8.92732 38.0051 9.78366C37.659 10.6399 37.2034 11.4324 36.6387 12.1612C36.0921 12.8717 35.4727 13.5459 34.7804 14.1836C34.0881 14.803 33.3957 15.4315 32.7034 16.0693L34.0424 15.632C35.5182 16.7433 36.6296 17.9822 37.3766 19.3486C38.1236 20.7151 38.5703 22.1082 38.7161 23.5293ZM27.1014 16.3419C26.9373 16.287 26.7642 16.2595 26.5821 16.2595C26.1995 16.2595 25.8624 16.3961 25.5709 16.6694C25.2794 16.9245 25.0882 17.2434 24.9971 17.626C25.1427 17.6988 25.3248 17.6912 25.5436 17.6033C25.7623 17.5121 25.9901 17.3937 26.2268 17.248C26.4637 17.1021 26.6823 16.9472 26.8827 16.7834C27.1014 16.6194 27.2654 16.501 27.3746 16.4282C27.3381 16.413 27.2925 16.3946 27.2378 16.373C27.2013 16.3579 27.1557 16.3503 27.101 16.3503L27.1014 16.3419ZM32.6218 23.7753C32.713 22.7551 32.5034 21.6984 31.9931 20.6052C31.5013 19.5121 30.7452 18.5646 29.7249 17.763C29.3423 17.9998 28.9414 18.264 28.5224 18.5555C28.1216 18.847 27.7026 19.1294 27.2653 19.4027C26.8462 19.6578 26.4091 19.8764 25.9536 20.0586C25.5163 20.2407 25.0699 20.3319 24.6145 20.3319C24.2136 20.3319 23.8128 20.2498 23.412 20.0858C23.0294 19.9036 22.6467 19.603 22.2642 19.1839L20.6245 22.4907C20.7701 22.3813 20.9158 22.2812 21.0617 22.1902C21.2255 22.099 21.3804 22.0261 21.5263 21.9714C21.7266 21.9165 21.9089 21.9439 22.0729 22.0537C22.237 22.1631 22.3189 22.3179 22.3189 22.5183C22.3736 23.3017 22.5832 24.0031 22.9476 24.6225C23.3119 25.2238 23.7764 25.743 24.3412 26.1803C24.906 26.5993 25.5347 26.9182 26.227 27.1369C26.9193 27.3553 27.6025 27.4646 28.2766 27.4646C28.8232 27.4646 29.3425 27.3916 29.8344 27.2457C30.3445 27.0999 30.7908 26.8812 31.1734 26.5899C31.5743 26.2801 31.9022 25.8975 32.1573 25.4421C32.4123 24.9683 32.5671 24.413 32.6218 23.7753Z" fill="#310B4F"/>
</g>
<use xlink:href="#pattern0_64_92_inner" transform="translate(-53.75 46.2499)"/>
<use xlink:href="#pattern0_64_92_inner" transform="translate(53.75 46.2499)"/>
</pattern></defs>
</svg>
