<svg xmlns="http://www.w3.org/2000/svg" xmlns:xlink="http://www.w3.org/1999/xlink" width="387" height="522" fill="none"><rect width="387" height="522" fill="#9B4BDC" rx="40"/><rect width="387" height="522" fill="url(#a)" fill-opacity=".25" rx="40"/><path fill="#310B4F" d="M172.432 213.399a32.6 32.6 0 0 1-.912 12.024 34.2 34.2 0 0 1-5.056 10.863 30.3 30.3 0 0 1-5.885 6.302 37.5 37.5 0 0 1-7.129 4.644 33.7 33.7 0 0 1-7.958 2.654 28.9 28.9 0 0 1-8.123.663 27.8 27.8 0 0 1-8.124-1.741q-3.896-1.493-7.211-4.395-3.316-2.903-5.803-7.298t-3.813-10.448q-.498-2.903-.414-5.391-1.575 3.069-3.399 6.634a127 127 0 0 1-3.813 7.049 77 77 0 0 1-4.559 6.8q-2.487 3.234-5.388 5.722t-6.3 3.897q-3.398 1.493-7.46 1.41-4.726-.083-9.118-2.736-4.31-2.654-7.792-6.8-3.4-4.146-5.72-9.288-2.403-5.142-3.15-10.283t.332-9.785q.995-4.644 4.31-7.795.746-.663 1.74-.497.995.248 1.493 1.243 2.9 6.717 7.129 10.034 4.227 3.234 9.2 3.152 6.217-.084 13.015-5.308 6.88-5.224 13.097-15.341a155 155 0 0 0 3.813-6.634 426 426 0 0 0 4.227-7.629 402 402 0 0 1 4.477-8.044 171 171 0 0 1 4.724-7.795 92 92 0 0 1 4.891-7.048q2.487-3.318 4.891-5.639 3.565-2.82 7.294-2.82 1.41 0 2.653.332 1.243.415 1.492 1.575.166 1.245-.746 1.991-2.404 1.99-4.559 5.639a92 92 0 0 0-4.062 7.712 226 226 0 0 0-3.398 7.961 257 257 0 0 1-2.736 6.551q3.068-1.825 5.885-2.654a21.6 21.6 0 0 1 5.969-.829q1.74 0 3.564.249a56 56 0 0 1 3.813.663q5.388-5.638 7.709-10.449 2.32-4.809 2.238-8.707-.083-3.98-2.321-6.965-2.238-2.986-5.968-4.976t-8.621-2.902q-4.89-.913-10.279-.747-6.465.167-12.599 2.156a53.9 53.9 0 0 0-11.356 5.059q-5.223 3.068-9.367 7.048-4.144 3.898-6.715 8.044-2.072 3.4-2.984 6.8-.912 3.317-.331 6.302.58 2.902 2.735 5.308 2.238 2.321 6.3 3.731.746.25 1.16 1.078a2.16 2.16 0 0 1 0 1.659q-.994 2.322-2.652 3.98a13.1 13.1 0 0 1-3.813 2.654q-2.072.912-4.56 1.244-2.403.249-4.89-.166-3.73-.58-7.294-2.654-3.565-2.155-6.052-5.721t-3.564-8.625q-.994-5.058.249-11.609.995-5.225 4.31-9.62 3.399-4.395 8.455-7.96 5.14-3.649 11.605-6.386a96 96 0 0 1 13.595-4.726 106 106 0 0 1 14.589-2.82q7.543-.995 14.754-.995 8.124 0 15.336 1.244 7.21 1.244 12.599 3.814 5.47 2.57 8.621 6.469 3.233 3.897 3.233 9.287 0 4.976-1.658 8.873a30.2 30.2 0 0 1-4.145 7.215 49 49 0 0 1-5.636 6.136q-3.15 2.82-6.3 5.722l4.062-1.327q6.714 5.06 10.112 11.278 3.399 6.219 4.062 12.688m-35.229-21.81a5 5 0 0 0-1.575-.249q-1.741 0-3.067 1.244a5.44 5.44 0 0 0-1.741 2.903q.663.331 1.658-.083a15 15 0 0 0 2.072-1.078 18 18 0 0 0 1.99-1.41 36 36 0 0 1 1.492-1.078 3 3 0 0 0-.415-.166.9.9 0 0 0-.414-.083m16.744 22.556q.414-4.644-1.906-9.619-2.238-4.976-6.88-8.625a82 82 0 0 0-3.648 2.405 65 65 0 0 1-3.813 2.571 27 27 0 0 1-3.979 1.99 10.5 10.5 0 0 1-4.061.829q-1.824 0-3.648-.746-1.74-.83-3.481-2.737l-4.974 10.034q.663-.497 1.327-.912a10.6 10.6 0 0 1 1.409-.663q.912-.249 1.658.249.746.497.746 1.409.248 3.566 1.906 6.386a17.2 17.2 0 0 0 4.228 4.726 19.3 19.3 0 0 0 5.719 2.903q3.15.995 6.217.995 2.487 0 4.725-.664 2.32-.663 4.062-1.99a11.4 11.4 0 0 0 2.984-3.483q1.16-2.155 1.409-5.058m74.603 3.4q-.497 1.41-1.077 2.819-.498 1.41-1.078 2.82a122 122 0 0 1-4.227 9.039q-2.321 4.395-5.057 8.126-3.813 5.225-7.543 7.298-3.647 2.073-6.549 1.492a6.53 6.53 0 0 1-3.481-1.741q-1.41-1.41-2.238-3.649-.83-2.238-.829-5.307 0-3.068.995-6.8a1882 1882 0 0 0-3.067 5.39 36.8 36.8 0 0 1-3.896 5.805q-2.238 2.736-5.057 4.561-2.735 1.824-6.382 1.824-4.228 0-6.466-1.658-2.32-1.66-3.15-4.478-.829-2.82-.332-6.551.415-3.815 1.658-8.044 1.492-5.39 3.73-11.029 2.24-5.639 4.228-10.78a107 107 0 0 1 1.989-4.81 75 75 0 0 0 1.824-4.229q.746-1.99.995-3.566.248-1.575-.415-2.654 1.575-1.41 3.15-1.99t2.901-.415q2.155.333 3.15 2.488 1.078 2.073-.083 5.805a93 93 0 0 1-1.575 4.644 562 562 0 0 1-1.74 5.141 152 152 0 0 0-2.487 8.79q-1.078 4.313-1.078 7.464 0 2.902 1.078 4.229 1.16 1.243 2.735 1.327 1.576.083 3.316-.913 1.824-1.077 3.15-2.902a30 30 0 0 0 1.989-3.068q.995-1.825 1.907-4.312a89 89 0 0 0 2.57-7.298 384 384 0 0 1 2.072-6.8q1.077-3.234 2.321-5.721 1.244-2.571 2.984-4.064 3.399-2.902 5.637-2.488 2.238.332 2.735 3.483.498 3.151-1.243 8.044a72 72 0 0 1-2.073 4.893 70 70 0 0 1-2.238 4.561 71 71 0 0 1-2.072 3.731q-.994 1.659-1.741 2.571-.58 5.059.581 7.546 1.16 2.405 3.232 2.239t4.559-2.902q2.487-2.737 4.56-7.961zm-17.739-15.839.912-1.161q.746-.83.746-1.161.083-.414-.166-.497-.248 0-.663.331-.332.332-.497.995zm50.565-10.78q2.818-.083 4.559 1.161 1.824 1.243 2.735 3.4.995 2.156 1.244 5.141.248 2.903-.083 6.219a51 51 0 0 1-.995 6.8 122 122 0 0 1-1.658 6.8 5 5 0 0 1-.414 1.41q2.072-1.99 3.813-4.727 1.823-2.819 2.984-5.639h7.212a557 557 0 0 1-2.57 6.883 92 92 0 0 1-2.736 6.8 54 54 0 0 1-3.315 6.136q-1.824 2.902-4.062 5.142a86 86 0 0 1-1.906 1.658 23 23 0 0 1-2.156 1.742q-1.16.746-2.486 1.327a6.7 6.7 0 0 1-2.487.497q-.83 0-1.492-.166-.663-.166-1.327-.415-3.729 4.147-7.626 6.386-3.896 2.239-7.46 1.99t-5.802-2.239q-2.156-1.99-3.15-5.224t-.912-7.381q.166-4.228 1.243-8.79a295 295 0 0 0-3.233 9.785 128 128 0 0 0-2.901 10.781 107 107 0 0 0-1.741 10.946q-.58 5.473-.165 10.283.497 4.892 2.321 8.873 1.822 4.063 5.388 6.634.995.663 1.16 2.073.083 1.16-.829 2.239-3.315 3.234-6.051 5.556t-5.139 3.731q-2.405 1.493-4.725 1.991-2.239.497-4.642.082-3.233-.497-5.305-2.404t-3.233-4.727q-1.16-2.82-1.492-6.468a48 48 0 0 1-.083-7.464q.414-6.717 1.824-12.936a125 125 0 0 1 3.398-12.024 208 208 0 0 1 4.311-11.61 990 990 0 0 0 4.559-11.443q1.824-4.644 3.73-9.454a155 155 0 0 0 3.398-9.619q1.575-4.81 2.487-9.288t.663-8.375q-.083-.996.498-1.742a3.07 3.07 0 0 1 1.492-1.161 49 49 0 0 1 4.31-1.078q2.073-.496 3.73 0 2.819.746 4.145 2.654t1.492 4.478q.249 2.571-.414 5.556a48 48 0 0 1-1.575 5.97 64 64 0 0 1 4.559-6.468q2.486-3.067 5.222-5.307 2.736-2.239 5.637-3.566 2.983-1.326 6.051-1.409m-8.621 11.609q-2.073.912-3.482 3.069-1.409 2.073-1.906 4.395-.415 1.907-.166 3.565.25 1.576 1.409 2.322a2.9 2.9 0 0 1 1.161 1.742 2.56 2.56 0 0 1-.249 1.907 23.5 23.5 0 0 1-1.658 2.819 14.7 14.7 0 0 1-1.906 2.157q-.912.912-1.824 1.326t-1.741.166q-1.16-.414-1.906-2.405-.663-2.073-.829-6.468a48 48 0 0 0-.829 5.307q-.167 2.571 0 4.644.166 1.99.663 3.317.58 1.327 1.575 1.576 2.072.496 4.311-1.41 2.32-1.99 4.31-5.141 2.072-3.235 3.647-7.132 1.658-3.897 2.404-7.38.83-3.483.58-5.888-.249-2.405-1.906-2.654-.58-.082-1.658.166M332 217.877q-1.824 4.146-4.476 9.287a79 79 0 0 1-6.051 9.868q-3.399 4.644-7.544 8.044-4.144 3.317-8.952 3.898-2.652.332-4.31-.498a6.7 6.7 0 0 1-2.487-2.488q-.83-1.658-1.078-3.897a27.4 27.4 0 0 1 .083-4.727 43 43 0 0 1-2.652 4.561 18.3 18.3 0 0 1-3.316 3.814q-1.907 1.66-4.393 2.654-2.404.912-5.554.829-3.316-.165-5.803-2.322-2.486-2.155-3.896-5.721t-1.657-8.21q-.332-4.644.58-9.619.995-5.723 3.647-11.361 2.736-5.639 6.797-10.117a33 33 0 0 1 9.367-7.215q5.305-2.819 11.605-2.819 1.99 0 3.896.332 1.99.249 3.73.995a11.7 11.7 0 0 1 3.15 1.99q1.493 1.244 2.487 3.151a11.3 11.3 0 0 1 1.326 4.644 15.2 15.2 0 0 1-.331 4.975q-.498 2.406-1.907 4.644a12.1 12.1 0 0 1-3.482 3.649h2.073q.663 0 .912.415.332.331.165.995a52 52 0 0 0-1.077 4.478q-.332 2.073-.249 3.731.166 1.576.829 2.571.746.912 2.155.912 1.16 0 2.321-.912 1.16-.912 2.321-2.488 1.243-1.575 2.404-3.648a65 65 0 0 0 2.238-4.395zm-22.878-11.112q.994-2.157.58-3.483a3.7 3.7 0 0 0-1.575-2.073 6.5 6.5 0 0 0-1.906-.747 9 9 0 0 0-2.156-.249q-3.564 0-6.714 2.239-3.15 2.24-5.637 5.556a34.6 34.6 0 0 0-3.978 7.132q-1.492 3.814-1.99 6.883-.58 3.731.166 5.887.828 2.073 2.321 2.488 1.575.498 3.564-.829 2.072-1.327 3.896-4.561.332-.58.912-1.658t1.077-2.157l.995-1.99.498-.912-.166-.083a9.1 9.1 0 0 1-3.067-1.41q-1.327-1.077-2.239-3.068-.248-.83.332-1.327.58-.58 1.409-.248 1.741.995 3.482.995 1.491 0 2.901-.581.83-1.493 1.575-2.819.828-1.41 1.658-2.322 1.077-1.078 1.823-1.078l.332.166.083.331.083 1.078v.249l-.083 1.41-.083.083h.083v-.083q.414-.416.912-1.161.497-.746.912-1.658"/><path fill="#310B4F" d="M239.857 276.707q-2.027 0-3.647-.695-1.621-.723-2.548-2.027-.926-1.303-.926-3.04h3.531q.116 1.303 1.014 2.143.926.84 2.576.839 1.707 0 2.663-.81.955-.84.955-2.143 0-1.014-.608-1.651-.579-.637-1.476-.984-.868-.348-2.432-.753-1.968-.522-3.213-1.043-1.215-.55-2.084-1.679-.868-1.13-.868-3.012 0-1.738.868-3.04.869-1.304 2.432-1.998 1.563-.695 3.618-.695 2.923 0 4.776 1.476 1.881 1.449 2.084 3.997h-3.647q-.087-1.1-1.042-1.883t-2.518-.782q-1.419 0-2.316.724t-.897 2.085q0 .927.55 1.535a4.25 4.25 0 0 0 1.447.927q.868.346 2.374.753 1.997.55 3.241 1.1a5.24 5.24 0 0 1 2.143 1.709q.897 1.129.897 3.04 0 1.534-.84 2.896-.81 1.36-2.402 2.201-1.563.81-3.705.81m26.92-20.328v20.126h-3.3v-8.803h-9.466v8.803h-3.299v-20.126h3.299v8.63h9.466v-8.63zm16.47 16.014h-8.423l-1.448 4.112h-3.444l7.207-20.155h3.821l7.208 20.155h-3.474zm-.926-2.693-3.271-9.354-3.3 9.354zm7.873-3.302q0-2.953 1.36-5.299 1.39-2.345 3.734-3.648 2.374-1.332 5.182-1.332 3.212 0 5.702 1.592 2.519 1.564 3.647 4.46h-3.965q-.782-1.593-2.171-2.375-1.39-.782-3.213-.782-1.998 0-3.561.898t-2.46 2.577q-.868 1.68-.868 3.909t.868 3.91q.897 1.679 2.46 2.606 1.563.898 3.561.898 1.822 0 3.213-.782 1.39-.782 2.171-2.375h3.965q-1.128 2.896-3.647 4.46-2.49 1.563-5.702 1.563-2.837 0-5.182-1.303a10.05 10.05 0 0 1-3.734-3.677q-1.36-2.346-1.36-5.3m34.561 10.107-7.786-9.006v9.006h-3.3v-20.126h3.3v9.18l7.815-9.18h4.14l-8.742 10.077 8.886 10.049z"/><defs><pattern id="a" width="1" height="1" patternTransform="matrix(107.5 0 0 92.4998 150.5 485)" patternUnits="userSpaceOnUse" preserveAspectRatio="none" viewBox="0 0 107.5 92.5"><use xlink:href="#b" transform="translate(-107.5)"/><g id="b"><path fill="#E0C6AA" d="M67.5 23.087a4.587 4.587 0 1 0 0-9.174 4.587 4.587 0 0 0 0 9.174M67.457 0a9.18 9.18 0 0 0-2.25 6.017 9.17 9.17 0 0 0 2.294 6.06 9.18 9.18 0 0 0 2.248-6.014A9.18 9.18 0 0 0 67.457 0M67.5 24.922a9.18 9.18 0 0 0-2.249 6.017 9.18 9.18 0 0 0 2.293 6.06 9.17 9.17 0 0 0 2.248-6.014 9.17 9.17 0 0 0-2.291-6.063M49 18.457a9.17 9.17 0 0 1 6.017-2.25 9.18 9.18 0 0 1 6.06 2.294 9.18 9.18 0 0 1-6.014 2.248A9.18 9.18 0 0 1 49 18.457M73.922 18.5a9.17 9.17 0 0 1 6.017-2.249 9.17 9.17 0 0 1 6.06 2.293 9.18 9.18 0 0 1-6.014 2.249 9.18 9.18 0 0 1-6.063-2.292M54.388 31.551a9.18 9.18 0 0 1 2.664-5.845 9.17 9.17 0 0 1 5.907-2.664 9.18 9.18 0 0 1-2.663 5.843 9.18 9.18 0 0 1-5.908 2.666M72.042 13.96a9.17 9.17 0 0 1 2.663-5.846 9.18 9.18 0 0 1 5.908-2.664 9.18 9.18 0 0 1-2.664 5.843 9.17 9.17 0 0 1-5.907 2.666M54.45 5.388a9.17 9.17 0 0 1 5.845 2.664 9.17 9.17 0 0 1 2.664 5.907 9.17 9.17 0 0 1-5.843-2.663 9.17 9.17 0 0 1-2.666-5.908M72.042 23.042a9.18 9.18 0 0 1 5.845 2.663 9.17 9.17 0 0 1 2.664 5.908 9.18 9.18 0 0 1-5.843-2.664 9.18 9.18 0 0 1-2.666-5.907"/><path fill="#310B4F" d="M38.716 23.53q.219 2.022-.3 3.962a11.3 11.3 0 0 1-1.667 3.58 10 10 0 0 1-1.94 2.077 12.4 12.4 0 0 1-2.351 1.53q-1.257.602-2.624.875-1.338.3-2.678.219a9.2 9.2 0 0 1-2.678-.574A7.9 7.9 0 0 1 22.1 33.75q-1.092-.957-1.913-2.405-.819-1.449-1.257-3.444a9 9 0 0 1-.137-1.776q-.52 1.011-1.12 2.186-.574 1.148-1.257 2.323a25 25 0 0 1-1.503 2.241 12.5 12.5 0 0 1-1.777 1.886 7.7 7.7 0 0 1-2.077 1.284q-1.12.492-2.46.465-1.557-.023-3.005-.902a10.6 10.6 0 0 1-2.57-2.241 13.7 13.7 0 0 1-1.885-3.06A12 12 0 0 1 .1 26.917q-.245-1.694.11-3.224.328-1.53 1.42-2.57a.66.66 0 0 1 .575-.163.74.74 0 0 1 .492.41q.955 2.213 2.35 3.306 1.394 1.066 3.033 1.039 2.05-.022 4.291-1.75 2.268-1.72 4.318-5.055.6-.984 1.257-2.186.684-1.203 1.394-2.515.71-1.311 1.476-2.65.765-1.34 1.557-2.57a30 30 0 0 1 1.613-2.322 15.6 15.6 0 0 1 1.612-1.859q1.175-.929 2.405-.929.464 0 .875.11.41.136.492.519.054.41-.247.656-.792.655-1.503 1.858t-1.339 2.542a75 75 0 0 0-1.12 2.623 85 85 0 0 1-.902 2.159q1.011-.6 1.94-.874a7.1 7.1 0 0 1 1.968-.274q.574 0 1.175.083.601.082 1.257.219 1.777-1.86 2.542-3.444.765-1.585.738-2.87-.027-1.312-.765-2.295-.738-.984-1.968-1.64t-2.842-.956a15.8 15.8 0 0 0-3.39-.246 14.6 14.6 0 0 0-4.153.71q-1.995.63-3.744 1.667a16.5 16.5 0 0 0-3.088 2.323q-1.367 1.285-2.214 2.651a8.6 8.6 0 0 0-.984 2.241q-.3 1.093-.11 2.077.192.956.902 1.75.738.765 2.078 1.229a.66.66 0 0 1 .382.355.7.7 0 0 1 0 .547q-.328.765-.874 1.311a4.3 4.3 0 0 1-1.258.875 5.5 5.5 0 0 1-1.503.41 6 6 0 0 1-1.612-.055 6.9 6.9 0 0 1-2.405-.875 6.55 6.55 0 0 1-1.995-1.885q-.82-1.176-1.175-2.842-.328-1.668.082-3.826a7.55 7.55 0 0 1 1.421-3.17q1.12-1.448 2.788-2.624 1.695-1.203 3.826-2.104a32 32 0 0 1 4.482-1.558 35 35 0 0 1 4.81-.93A37 37 0 0 1 25.433 0q2.677 0 5.056.41t4.154 1.257q1.803.847 2.842 2.132 1.066 1.284 1.066 3.06 0 1.64-.547 2.925a10 10 0 0 1-1.366 2.377 16 16 0 0 1-1.859 2.023q-1.038.929-2.077 1.885l1.34-.437q2.213 1.666 3.334 3.717 1.12 2.05 1.34 4.18m-11.615-7.188a1.6 1.6 0 0 0-.519-.082q-.574 0-1.011.41a1.8 1.8 0 0 0-.574.956q.219.11.547-.023.327-.136.683-.355.355-.218.656-.465.327-.246.492-.355l-.137-.055a.4.4 0 0 0-.137-.023zm5.52 7.433q.137-1.53-.628-3.17-.738-1.64-2.268-2.842-.575.355-1.203.792-.6.438-1.257.848-.629.382-1.311.656a3.5 3.5 0 0 1-1.34.273q-.6 0-1.202-.246-.574-.273-1.148-.902l-1.64 3.307q.219-.165.438-.3.245-.138.464-.22a.64.64 0 0 1 .547.083q.246.164.246.464.082 1.176.629 2.104.546.903 1.393 1.558a6.4 6.4 0 0 0 1.886.957 6.8 6.8 0 0 0 2.05.328 5.5 5.5 0 0 0 1.557-.22 4 4 0 0 0 1.34-.655q.6-.464.983-1.148.383-.71.465-1.667"/></g><use xlink:href="#b" transform="translate(-53.75 46.25)"/><use xlink:href="#b" transform="translate(53.75 46.25)"/></pattern></defs></svg>