<svg xmlns="http://www.w3.org/2000/svg" xmlns:xlink="http://www.w3.org/1999/xlink" width="387" height="522" fill="none"><rect width="387" height="522" fill="#C1272D" rx="40"/><rect width="387" height="522" fill="url(#a)" fill-opacity=".15" rx="40"/><g clip-path="url(#b)"><path fill="#FAF8F6" d="M76.713 299q-3.941 0-7.374-.572-3.368-.572-5.847-1.653v-7.564q2.796 1.144 6.038 1.843t6.356.7q4.45 0 6.547-.827 2.097-.826 2.098-3.75 0-1.844-.89-2.924-.89-1.081-3.115-1.907-2.16-.89-6.165-1.971-6.42-1.779-9.026-4.449t-2.606-7.374q0-5.657 4.132-8.708 4.13-3.052 12.013-3.052 3.686 0 6.864.509t5.149 1.208v7.564a30.5 30.5 0 0 0-10.87-1.971q-4.003 0-6.292.89-2.288.827-2.288 3.56 0 1.59.826 2.543.826.952 2.797 1.716 2.034.763 5.657 1.716 5.02 1.335 7.755 3.179 2.733 1.842 3.75 4.195 1.08 2.351 1.08 5.276 0 5.339-4.068 8.581T76.713 299m22.564-.636v-40.936h8.581v17.163h17.861v-17.163h8.58v40.936h-8.58v-17.162h-17.861v17.162zm60.892.636q-19.895 0-19.895-20.913 0-11.251 5.022-16.273 5.02-5.022 14.873-5.022t14.874 5.022 5.021 16.273q0 20.913-19.895 20.913m0-7.31q5.784 0 8.454-3.305 2.733-3.37 2.733-10.298 0-7.692-2.733-10.806-2.67-3.179-8.454-3.179t-8.517 3.179q-2.67 3.114-2.67 10.806 0 6.929 2.67 10.298 2.733 3.305 8.517 3.305m25.87 6.674v-40.936H249.5q4.831 0 7.882 1.843 3.114 1.844 4.64 5.022t1.526 7.247q0 4.131-1.78 7.31-1.716 3.178-4.958 4.958-3.178 1.716-7.564 1.716H194.62v12.84zm8.581-19.641h52.846q3.688 0 5.53-1.907 1.907-1.971 1.907-5.276 0-3.56-1.78-5.403-1.78-1.907-5.339-1.907H194.62zM103.648 243.817q-20.858 0-31.754-10.63Q61 222.558 61 200.103q0-23.783 10.894-34.147t31.754-10.363q20.859 0 31.753 10.363 10.894 10.364 10.894 34.147 0 22.455-10.894 33.084t-31.753 10.63m0-18.203q10.761 0 15.677-6.112 5.049-6.244 5.049-19.399 0-14.349-5.049-20.196-4.916-5.979-15.677-5.979-10.895 0-15.943 5.979-4.917 5.847-4.916 20.196 0 13.155 4.916 19.399 5.048 6.112 15.943 6.112m75.198 18.203q-11.16 0-17.405-6.245-6.244-6.378-6.244-18.469v-39.594h21.39v38.398q0 5.316 2.525 7.84 2.657 2.391 7.838 2.391 3.853 0 7.308-1.594t5.713-3.986v-43.049h21.39v62.979h-19.929l-.664-5.315q-3.853 2.923-9.3 4.783t-12.622 1.861m60.318-74.273v-16.077h23.25v16.077zm1.727 72.944V195.32h-9.3l1.86-15.811h28.83v62.979z"/><path fill="#E35D5D" d="M288.704 253.019q-9.546-1.198-14.776 3.382-5.123 4.497-6.728 17.291-1.52 12.125 2.296 18.035 3.924 5.826 13.471 7.025 9.64 1.21 14.786-3.479 5.253-4.772 6.774-16.897 1.605-12.793-2.342-18.429-3.839-5.719-13.481-6.928M301.963 147.227a28.523 28.523 0 0 0-32.082 28.297l-.022 71.496c5.161-2.936 11.816-3.898 19.975-2.872 8.184 1.028 14.387 3.594 18.627 7.688l17.668-69.492a28.31 28.31 0 0 0-4.048-22.937 28.33 28.33 0 0 0-19.871-12.149z"/></g><defs><clipPath id="b"><path fill="#fff" d="M61 147h266v152H61z"/></clipPath><pattern id="a" width="1" height="1" patternTransform="matrix(138.922 0 0 157.431 164.694 185.62)" patternUnits="userSpaceOnUse" preserveAspectRatio="none" viewBox="5.924 3.335 138.922 157.431"><use xlink:href="#c" transform="translate(0 -157.431)"/><use xlink:href="#c" transform="translate(69.461 -78.715)"/><g id="c" fill="#E35D5D"><path d="M27.862 109.35q-9.547-1.198-14.777 3.382-5.121 4.497-6.727 17.291-1.521 12.125 2.295 18.034 3.924 5.827 13.47 7.026c6.43.806 11.356-.354 14.787-3.48q5.253-4.77 6.775-16.896 1.605-12.793-2.343-18.429-3.839-5.719-13.48-6.928M41.12 3.558A28.53 28.53 0 0 0 11.566 20.12a28.5 28.5 0 0 0-2.528 11.734l-.022 71.496c5.161-2.937 11.817-3.898 19.975-2.873 8.185 1.029 14.388 3.595 18.627 7.689l17.669-69.492a28.32 28.32 0 0 0-4.049-22.937 28.33 28.33 0 0 0-19.87-12.15z"/></g><use xlink:href="#c" transform="translate(69.461 78.715)"/></pattern></defs></svg>