<svg width="72" height="50" viewBox="0 0 72 50" fill="none" xmlns="http://www.w3.org/2000/svg">
<path d="M20.1142 2.11714C12.0818 2.86592 7.1984 5.29564 4.66505 9.32497C2.1317 13.3543 2.07491 18.1974 1.95029 23.5211C1.82061 29.0604 2.50478 34.4331 4.74823 38.868C6.99169 43.3028 11.0195 46.7071 16.7189 47.6582C20.8039 48.3398 27.6192 48.0005 33.7334 47.5826C39.8436 47.165 45.062 46.599 45.0689 46.5983H45.0767C45.128 46.5948 49.2389 46.1447 51.8144 42.3963C54.205 38.9171 54.5932 32.7049 51.2775 23.2713C52.8824 22.21 58.9684 18.414 67.6039 18.9254C67.9089 18.9436 68.2144 18.9015 68.503 18.8013C68.7917 18.7012 69.0578 18.545 69.286 18.3418C69.5143 18.1385 69.7003 17.8922 69.8334 17.6169C69.9665 17.3416 70.044 17.0427 70.0616 16.7373C70.0798 16.432 70.0377 16.1261 69.9376 15.8371C69.8376 15.5481 69.6816 15.2817 69.4786 15.0532C69.2756 14.8246 69.0296 14.6384 68.7546 14.5051C68.4797 14.3719 68.1811 14.2942 67.8762 14.2767C56.1335 13.5812 47.2621 20.2049 47.2621 20.2049C46.8471 20.5106 46.5454 20.9457 46.4044 21.4419C46.2633 21.938 46.291 22.467 46.4831 22.9456C50.5537 33.0947 49.4102 37.6913 47.9879 39.7614C46.5656 41.8314 44.6077 41.9722 44.6077 41.9722C44.5976 41.9744 44.5875 41.9767 44.5775 41.9791C44.5775 41.9791 39.4266 42.5299 33.4159 42.9406C27.4053 43.3514 20.3499 43.5477 17.4828 43.0692C13.1107 42.3396 10.6072 40.1524 8.89234 36.7624C7.17744 33.3724 6.47486 28.6936 6.59349 23.6263C6.71715 18.3433 7.00558 14.3318 8.59742 11.8C10.1893 9.26814 13.2148 7.42573 20.5454 6.74239C26.2239 6.21305 29.7546 7.08742 31.9187 8.39294C34.0828 9.69853 35.09 11.4568 35.6089 13.4884C36.6469 17.5515 35.1779 22.3392 35.1779 22.3392C35.0809 22.629 35.0419 22.9351 35.0631 23.24C35.0844 23.545 35.1654 23.8427 35.3017 24.1162C35.4379 24.3898 35.6267 24.6337 35.8572 24.8342C36.0877 25.0346 36.3553 25.1876 36.6449 25.2844C36.9349 25.3813 37.2411 25.4201 37.546 25.3983C37.8509 25.3765 38.1485 25.2947 38.4218 25.1576C38.6951 25.0204 38.9387 24.8306 39.1385 24.599C39.3384 24.3674 39.4906 24.0986 39.5865 23.808C39.5865 23.808 41.5947 18.156 40.1083 12.3376C39.3652 9.42834 37.5986 6.39097 34.3158 4.41047C31.0331 2.42999 26.4364 1.52779 20.1142 2.11714Z" fill="#1A73E8"/>
<path d="M19.9345 0.186155C11.5893 0.964108 5.97114 3.61126 3.0272 8.29363C0.128215 12.9045 0.140334 18.1666 0.016031 23.4765C-0.118071 29.2048 0.563883 34.8863 3.02042 39.7424C5.50544 44.6547 10.1087 48.5211 16.4011 49.5712C20.9333 50.3274 27.7238 49.9365 33.8645 49.5169C39.9728 49.0995 45.103 48.5414 45.1869 48.5323C45.1871 48.5323 45.2071 48.5324 45.2073 48.5323C45.2906 48.5271 45.2394 48.5271 45.2615 48.5254H45.2718C45.3021 48.5219 45.3495 48.5167 45.3837 48.5115C45.4374 48.5045 45.5058 48.4976 45.5871 48.4844C45.7498 48.4578 45.9654 48.4168 46.228 48.3554C46.7532 48.2325 47.4617 48.0266 48.2626 47.6832C49.8644 46.9963 51.8702 45.7347 53.41 43.4936C56.1753 39.469 56.3722 33.0849 53.5694 24.2774C55.7353 22.9564 60.4279 20.4404 67.4893 20.8586C69.8161 20.9976 71.8558 19.1816 71.9925 16.8523C72.1314 14.5221 70.3183 12.4762 67.9911 12.3403H67.9877C55.4769 11.6008 46.132 18.6329 46.116 18.6449C46.1152 18.6455 46.1168 18.6484 46.116 18.6484C44.5608 19.7957 43.9649 21.8714 44.685 23.6663C48.6336 33.5111 47.3326 37.2966 46.3941 38.6625C45.4187 40.082 44.468 40.0375 44.468 40.0375C44.4363 40.041 44.4046 40.0462 44.3731 40.0514C44.3731 40.0514 39.2529 40.5976 33.2847 41.0054C27.3349 41.412 20.0758 41.5377 17.8016 41.1582C13.9301 40.5121 12.1429 38.8971 10.6195 35.8856C9.13276 32.9466 8.41353 28.5302 8.52731 23.6701C8.64986 18.4347 9.07947 14.673 10.2363 12.8329C10.8505 11.8561 11.6454 11.0664 13.2272 10.3376C14.8089 9.60866 17.1947 9.00299 20.7246 8.67394C26.1334 8.16975 29.227 9.03034 30.9212 10.0523C32.6546 11.0981 33.2958 12.2619 33.7323 13.9703C34.5711 17.254 33.3287 21.7688 33.3287 21.7688L33.3423 21.7247C32.6016 23.9376 33.8202 26.3838 36.0313 27.1229C38.2405 27.8616 40.6779 26.6371 41.4161 24.4272C41.4336 24.3794 43.6405 18.3492 41.9824 11.8585C41.1369 8.54871 39.085 5.02349 35.3158 2.7495C31.5716 0.490651 26.5246 -0.428173 19.9345 0.186155Z" fill="#1A73E8"/>
</svg>
